<?xml version="1.0" encoding="UTF-8" standalone="no"?>
<!-- Created with Inkscape (http://www.inkscape.org/) -->
<svg xmlns:dc="http://purl.org/dc/elements/1.1/" xmlns:cc="http://creativecommons.org/ns#" xmlns:rdf="http://www.w3.org/1999/02/22-rdf-syntax-ns#" xmlns:svg="http://www.w3.org/2000/svg" xmlns="http://www.w3.org/2000/svg" xmlns:xlink="http://www.w3.org/1999/xlink" xmlns:sodipodi="http://sodipodi.sourceforge.net/DTD/sodipodi-0.dtd" xmlns:inkscape="http://www.inkscape.org/namespaces/inkscape" width="147.09109" height="118.20446" id="svg4230" version="1.1" inkscape:version="0.48.1 r9760" sodipodi:docname="key.svg">
  <title id="title4294">Clé</title>
  <defs id="defs4232">
    <linearGradient id="linearGradient3769">
      <stop style="stop-color:#ffffff;stop-opacity:1;" offset="0" id="stop3771"/>
      <stop style="stop-color:#101010;stop-opacity:1;" offset="1" id="stop3773"/>
    </linearGradient>
    <linearGradient id="linearGradient3761">
      <stop style="stop-color:#cdcdcd;stop-opacity:1;" offset="0" id="stop3763"/>
      <stop style="stop-color:#7e7e7e;stop-opacity:1;" offset="1" id="stop3765"/>
    </linearGradient>
    <linearGradient inkscape:collect="always" xlink:href="#linearGradient3761" id="linearGradient3767" x1="748.42609" y1="388.27856" x2="754.3587" y2="418.77188" gradientUnits="userSpaceOnUse"/>
    <linearGradient inkscape:collect="always" xlink:href="#linearGradient3769" id="linearGradient3775" x1="755.12415" y1="399.59985" x2="755.21686" y2="405.14407" gradientUnits="userSpaceOnUse"/>
  </defs>
  <sodipodi:namedview id="base" pagecolor="#ffffff" bordercolor="#666666" borderopacity="1.0" inkscape:pageopacity="0.0" inkscape:pageshadow="2" inkscape:zoom="2.5251446" inkscape:cx="64.92109" inkscape:cy="42.611616" inkscape:document-units="px" inkscape:current-layer="layer1" showgrid="false" inkscape:window-width="1585" inkscape:window-height="990" inkscape:window-x="205" inkscape:window-y="39" inkscape:window-maximized="0" fit-margin-top="0" fit-margin-left="0" fit-margin-right="0" fit-margin-bottom="0"/>
  <metadata id="metadata4235">
    <rdf:RDF>
      <cc:Work rdf:about="">
        <dc:format>image/svg+xml</dc:format>
        <dc:type rdf:resource="http://purl.org/dc/dcmitype/StillImage"/>
        <dc:title>Clé</dc:title>
        <dc:date>2011-02-05</dc:date>
        <dc:creator>
          <cc:Agent>
            <dc:title>lmproulx</dc:title>
          </cc:Agent>
        </dc:creator>
        <cc:license rdf:resource="http://creativecommons.org/licenses/publicdomain/"/>
      </cc:Work>
      <cc:License rdf:about="http://creativecommons.org/licenses/publicdomain/">
        <cc:permits rdf:resource="http://creativecommons.org/ns#Reproduction"/>
        <cc:permits rdf:resource="http://creativecommons.org/ns#Distribution"/>
        <cc:permits rdf:resource="http://creativecommons.org/ns#DerivativeWorks"/>
      </cc:License>
    </rdf:RDF>
  </metadata>
  <g inkscape:label="Calque 1" inkscape:groupmode="layer" id="layer1" transform="translate(-275.84639,-448.55519)">
    <g id="g4211" transform="matrix(0.83810968,-0.54550175,0.54550175,0.83810968,-480.06152,564.29044)">
      <path id="path4192" style="fill:url(#linearGradient3767);fill-opacity:1;stroke:#000000;stroke-width:2;stroke-linecap:round;stroke-linejoin:round;stroke-miterlimit:4;stroke-opacity:1;stroke-dasharray:none;stroke-dashoffset:3.00300009" d="m 678.73948,400.9253 c 0.10517,4.09879 -3.20979,8.08083 -7.4505,8.56346 -3.42032,0.45829 -6.99569,-1.35993 -8.57038,-4.34725 -1.84518,-3.30182 -1.28981,-7.75029 1.50035,-10.39946 2.26565,-2.25022 5.91888,-3.11286 8.94598,-1.90919 3.17267,1.18345 5.43031,4.28734 5.56024,7.58437 0.01,0.16918 0.0145,0.33863 0.0143,0.50807 z m 8.47119,-38.79275 c -9.7257,0.0685 -19.44655,4.20668 -26.28594,11.375 -12.2513,12.27526 -14.68109,32.88816 -6.57911,48.1875 6.91425,13.84205 22.5984,22.24852 37.61662,20.125 13.3149,-1.59914 24.54392,-11.48718 29.69733,-23.9375 l 9.53361,5.46875 c 2.79144,1.74168 4.35607,-0.44379 4.35561,-3 l -0.18276,-10.21875 10.84334,0.25 7.37102,6.9375 9.59453,-9.71498 8.77213,8.37123 6.48772,0 8.98535,-9 6.50495,5.49864 8.27817,-0.34752 7.18167,-6.90248 7.73254,-7.12364 c -1.31156,-4.36846 -5.04873,-7.06971 -11.90939,-10.0862 l -70.35983,0.55495 -0.42642,-7.78125 c -0.0335,-2.77651 -3.3696,-3.94462 -5.5435,-2.5 l -7.91929,6.46875 c -4.16904,-9.04068 -11.57065,-16.51467 -20.74245,-20.125 -4.15363,-1.74292 -8.58513,-2.53112 -13.0059,-2.5 z" inkscape:connector-curvature="0"/>
      <path inkscape:connector-curvature="0" id="path4201" d="m 718.00255,401.09687 97.1069,-1.19677 -4.5477,3.35094 -81.85871,1.19677 z" style="fill:url(#linearGradient3775);fill-opacity:1;stroke:#000000;stroke-width:1;stroke-linecap:round;stroke-linejoin:round;stroke-miterlimit:4;stroke-opacity:1;stroke-dasharray:none;stroke-dashoffset:3.00300009"/>
    </g>
  </g>
</svg>